# xmcd
#
# Track frame offsets:
# 150
# 18532
# 38550
# 69532
# 92320
# 111480
# 134565
# 158032
# 180120
# 199382
# 221630
# 250442
#
# Disc length: 3403 seconds
#
#
# Revision: 0
# Processed by: cddbd v1.5.1PL2 Copyright (c) Steve Scherf et al.
# Submitted via: FreeRIP 2.945 
#
DISCID=a60d490c
DTITLE=Jonatha Brooke and The Story - Plumb
DYEAR=1900
DGENRE=
TTITLE0=Nothing Sacred
TTITLE1=Where Were You
TTITLE2=Inconsolable
TTITLE3=No Better
TTITLE4=West Point
TTITLE5=War
TTITLE6=Made Of Gold
TTITLE7=Is This All
TTITLE8=Full-Fledged Strangers
TTITLE9=Paris
TTITLE10=Charming
TTITLE11=Andrew Duffy's Jig
EXTD=
EXTT0=
EXTT1=
EXTT2=
EXTT3=
EXTT4=
EXTT5=
EXTT6=
EXTT7=
EXTT8=
EXTT9=
EXTT10=
EXTT11=
PLAYORDER=
